{
  "accessors": [
    {
      "bufferView": 2,
      "componentType": 5126,
      "count": 10716,
      "max": [
        0.9012339115142822,
        0.9012339115142822,
        2.1502864360809326
      ],
      "min": [
        -0.9012339115142822,
        -0.9012339115142822,
        0.005469158757477999
      ],
      "type": "VEC3"
    },
    {
      "bufferView": 2,
      "byteOffset": 128592,
      "componentType": 5126,
      "count": 10716,
      "max": [
        1.0,
        1.0,
        1.0
      ],
      "min": [
        -1.0,
        -1.0,
        -1.0
      ],
      "type": "VEC3"
    },
    {
      "bufferView": 1,
      "componentType": 5126,
      "count": 10716,
      "max": [
        0.9871175289154053,
        0.9879196286201477
      ],
      "min": [
        0.00623309426009655,
        0.016836822032928467
      ],
      "type": "VEC2"
    },
    {
      "bufferView": 0,
      "componentType": 5125,
      "count": 48936,
      "type": "SCALAR"
    },
    {
      "bufferView": 2,
      "byteOffset": 257184,
      "componentType": 5126,
      "count": 639,
      "max": [
        0.8103464841842651,
        0.8103464841842651,
        1.8803763389587402
      ],
      "min": [
        -0.8103464841842651,
        -0.8103464841842651,
        0.28751906752586365
      ],
      "type": "VEC3"
    },
    {
      "bufferView": 2,
      "byteOffset": 264852,
      "componentType": 5126,
      "count": 639,
      "max": [
        0.9967762231826782,
        0.9967761635780334,
        -0.07163809984922409
      ],
      "min": [
        -0.9967762231826782,
        -0.9967762231826782,
        -0.9980825185775757
      ],
      "type": "VEC3"
    },
    {
      "bufferView": 1,
      "byteOffset": 85728,
      "componentType": 5126,
      "count": 639,
      "max": [
        0.8412133455276489,
        0.6646323800086975
      ],
      "min": [
        0.5573256015777588,
        0.017571955919265747
      ],
      "type": "VEC2"
    },
    {
      "bufferView": 1,
      "byteOffset": 90840,
      "componentType": 5126,
      "count": 639,
      "max": [
        0.8412133455276489,
        0.6646323800086975
      ],
      "min": [
        0.5573256015777588,
        0.017571955919265747
      ],
      "type": "VEC2"
    },
    {
      "bufferView": 0,
      "byteOffset": 195744,
      "componentType": 5125,
      "count": 3360,
      "type": "SCALAR"
    }
  ],
  "asset": {
    "extras": {
      "author": "Johnny.Korat (https://sketchfab.com/Johnny.Korat)",
      "license": "CC-BY-4.0 (http://creativecommons.org/licenses/by/4.0/)",
      "source": "https://sketchfab.com/3d-models/coffee-cup-d515f52a201041178d80bf98b086ada6",
      "title": "Coffee Cup"
    },
    "generator": "Sketchfab-15.22.0",
    "version": "2.0"
  },
  "bufferViews": [
    {
      "buffer": 0,
      "byteLength": 209184,
      "name": "floatBufferViews",
      "target": 34963
    },
    {
      "buffer": 0,
      "byteLength": 95952,
      "byteOffset": 209184,
      "byteStride": 8,
      "name": "floatBufferViews",
      "target": 34962
    },
    {
      "buffer": 0,
      "byteLength": 272520,
      "byteOffset": 305136,
      "byteStride": 12,
      "name": "floatBufferViews",
      "target": 34962
    }
  ],
  "buffers": [
    {
      "byteLength": 577656,
      "uri": "scene.bin"
    }
  ],
  "images": [
    {
      "uri": "textures/CupCoffee2_baseColor.png"
    }
  ],
  "materials": [
    {
      "doubleSided": true,
      "name": "CupCoffee1",
      "pbrMetallicRoughness": {
        "baseColorFactor": [
          0.48,
          0.48,
          0.48,
          1.0
        ],
        "metallicFactor": 0.0,
        "roughnessFactor": 0.24725046338131706
      }
    },
    {
      "doubleSided": true,
      "name": "CupCoffee2",
      "pbrMetallicRoughness": {
        "baseColorTexture": {
          "index": 0
        },
        "metallicFactor": 0.0,
        "roughnessFactor": 0.9915343129813227
      }
    }
  ],
  "meshes": [
    {
      "name": "CupCoffee_CupCoffee1_0",
      "primitives": [
        {
          "attributes": {
            "NORMAL": 1,
            "POSITION": 0,
            "TEXCOORD_0": 2
          },
          "indices": 3,
          "material": 0,
          "mode": 4
        }
      ]
    },
    {
      "name": "CupCoffee_CupCoffee2_0",
      "primitives": [
        {
          "attributes": {
            "NORMAL": 5,
            "POSITION": 4,
            "TEXCOORD_0": 6,
            "TEXCOORD_1": 7
          },
          "indices": 8,
          "material": 1,
          "mode": 4
        }
      ]
    }
  ],
  "nodes": [
    {
      "children": [
        1
      ],
      "matrix": [
        1.0,
        0.0,
        0.0,
        0.0,
        0.0,
        2.220446049250313e-16,
        -1.0,
        0.0,
        0.0,
        1.0,
        2.220446049250313e-16,
        0.0,
        0.0,
        0.0,
        0.0,
        1.0
      ],
      "name": "Sketchfab_model"
    },
    {
      "children": [
        2
      ],
      "matrix": [
        0.009999999776482582,
        0.0,
        0.0,
        0.0,
        0.0,
        0.0,
        0.009999999776482582,
        0.0,
        0.0,
        -0.009999999776482582,
        0.0,
        0.0,
        0.0,
        0.0,
        0.0,
        1.0
      ],
      "name": "9c600cb1c43342ffaee79a2c80c7d0ea.fbx"
    },
    {
      "children": [
        3
      ],
      "name": "RootNode"
    },
    {
      "children": [
        4,
        5
      ],
      "matrix": [
        100.0,
        0.0,
        0.0,
        0.0,
        0.0,
        -1.629206793918314e-05,
        -99.99999999999868,
        0.0,
        0.0,
        99.99999999999868,
        -1.629206793918314e-05,
        0.0,
        0.0,
        0.0,
        0.0,
        1.0
      ],
      "name": "CupCoffee"
    },
    {
      "mesh": 0,
      "name": "CupCoffee_CupCoffee1_0"
    },
    {
      "mesh": 1,
      "name": "CupCoffee_CupCoffee2_0"
    }
  ],
  "samplers": [
    {
      "magFilter": 9729,
      "minFilter": 9987,
      "wrapS": 10497,
      "wrapT": 10497
    }
  ],
  "scene": 0,
  "scenes": [
    {
      "name": "Sketchfab_Scene",
      "nodes": [
        0
      ]
    }
  ],
  "textures": [
    {
      "sampler": 0,
      "source": 0
    }
  ]
}
